<svg width="383" height="383" viewBox="0 0 383 383" fill="none" xmlns="http://www.w3.org/2000/svg">
<rect x="1.5" y="1.5" width="380" height="380" rx="8.5" stroke="black" stroke-width="3"/>
<rect x="112" y="315" width="160" height="39" rx="19.5" fill="#50CED6" fill-opacity="0.75"/>
<rect x="112.5" y="315.5" width="159" height="38" rx="19" stroke="black" stroke-opacity="0.45"/>
<path d="M60.4136 144.292H62.0176V149.858C62.0176 150.439 62.0029 151.028 61.9736 151.624C61.9443 152.214 61.9224 152.615 61.9077 152.825H61.9736L67.4448 144.292H69.4883V155H67.877V149.478C67.877 148.633 67.9233 147.607 68.0161 146.401H67.9575L62.4644 155H60.4136V144.292ZM76.7612 153.352L76.8564 153C77.0566 152.273 77.23 151.714 77.3765 151.323L79.1929 146.899H81.4854V155H79.896V148.459L79.7642 148.899C79.5444 149.685 79.3589 150.264 79.2075 150.635L77.4351 155H76.1313L74.3589 150.605C74.1147 149.971 73.8901 149.255 73.6851 148.459V155H72.1104V146.899H74.3882L76.146 151.191C76.3022 151.587 76.5073 152.307 76.7612 153.352ZM84.7739 155H82.8477L85.1035 151.682C84.5566 151.526 84.127 151.248 83.8145 150.847C83.502 150.442 83.3457 149.941 83.3457 149.346C83.3457 148.579 83.6191 147.981 84.166 147.551C84.7129 147.117 85.46 146.899 86.4072 146.899H90.0986V155H88.3701V151.88H86.7368L84.7739 155ZM85.0229 149.36C85.0229 149.775 85.1792 150.088 85.4917 150.298C85.8091 150.503 86.2339 150.605 86.7661 150.605H88.3701V148.203H86.4951C86.0264 148.203 85.6626 148.303 85.4038 148.503C85.1499 148.704 85.0229 148.989 85.0229 149.36ZM103.539 146.899V155H101.81V148.262H98.1772V155H96.4561V146.899H103.539ZM113.192 150.935C113.192 152.258 112.853 153.291 112.174 154.033C111.495 154.775 110.55 155.146 109.339 155.146C108.583 155.146 107.914 154.976 107.333 154.634C106.751 154.292 106.305 153.801 105.992 153.162C105.68 152.522 105.523 151.78 105.523 150.935C105.523 149.622 105.86 148.596 106.534 147.859C107.208 147.122 108.158 146.753 109.383 146.753C110.555 146.753 111.483 147.131 112.167 147.888C112.85 148.64 113.192 149.656 113.192 150.935ZM107.296 150.935C107.296 152.805 107.987 153.74 109.369 153.74C110.736 153.74 111.419 152.805 111.419 150.935C111.419 149.084 110.731 148.159 109.354 148.159C108.631 148.159 108.106 148.398 107.779 148.877C107.457 149.355 107.296 150.042 107.296 150.935ZM121.834 155H120.099V148.247H117.865C117.728 149.985 117.542 151.343 117.308 152.319C117.079 153.296 116.776 154.009 116.4 154.458C116.029 154.907 115.545 155.132 114.95 155.132C114.574 155.132 114.259 155.078 114.005 154.971V153.623C114.186 153.691 114.366 153.726 114.547 153.726C115.045 153.726 115.436 153.167 115.719 152.048C116.007 150.925 116.231 149.209 116.393 146.899H121.834V155ZM126.024 150.137H128.053C130.313 150.137 131.444 150.918 131.444 152.48C131.444 153.306 131.156 153.933 130.58 154.363C130.003 154.788 129.161 155 128.053 155H124.303V146.899H126.024V150.137ZM129.715 152.524C129.715 152.119 129.562 151.836 129.254 151.675C128.946 151.514 128.512 151.433 127.95 151.433H126.024V153.726H127.979C128.546 153.726 128.976 153.623 129.269 153.418C129.566 153.213 129.715 152.915 129.715 152.524ZM135.143 150.137C135.929 150.137 136.507 150.051 136.878 149.88C137.25 149.705 137.435 149.436 137.435 149.075C137.435 148.416 136.849 148.086 135.677 148.086C134.896 148.086 134.098 148.262 133.282 148.613L132.726 147.332C133.668 146.946 134.708 146.753 135.846 146.753C136.852 146.753 137.633 146.938 138.189 147.31C138.746 147.676 139.024 148.203 139.024 148.892C139.024 149.8 138.504 150.396 137.464 150.679V150.737C138.114 150.913 138.578 151.165 138.856 151.492C139.139 151.819 139.281 152.224 139.281 152.708C139.281 153.45 138.954 154.043 138.299 154.487C137.65 154.927 136.742 155.146 135.575 155.146C134.3 155.146 133.326 154.978 132.652 154.641V153.154C133.546 153.574 134.471 153.784 135.428 153.784C136.117 153.784 136.646 153.689 137.018 153.499C137.394 153.303 137.582 153.008 137.582 152.612C137.582 152.207 137.394 151.909 137.018 151.719C136.642 151.528 136.061 151.433 135.274 151.433H134.286V150.137H135.143ZM148.333 150.935C148.333 152.258 147.994 153.291 147.315 154.033C146.637 154.775 145.692 155.146 144.481 155.146C143.724 155.146 143.055 154.976 142.474 154.634C141.893 154.292 141.446 153.801 141.134 153.162C140.821 152.522 140.665 151.78 140.665 150.935C140.665 149.622 141.002 148.596 141.676 147.859C142.35 147.122 143.299 146.753 144.525 146.753C145.697 146.753 146.625 147.131 147.308 147.888C147.992 148.64 148.333 149.656 148.333 150.935ZM142.438 150.935C142.438 152.805 143.128 153.74 144.51 153.74C145.877 153.74 146.561 152.805 146.561 150.935C146.561 149.084 145.873 148.159 144.496 148.159C143.773 148.159 143.248 148.398 142.921 148.877C142.599 149.355 142.438 150.042 142.438 150.935ZM157.35 148.972C157.35 149.929 156.791 150.508 155.672 150.708V150.767C156.297 150.84 156.776 151.038 157.108 151.36C157.44 151.682 157.606 152.1 157.606 152.612C157.606 153.379 157.313 153.97 156.727 154.385C156.146 154.795 155.299 155 154.186 155H150.318V146.899H154.171C156.29 146.899 157.35 147.59 157.35 148.972ZM155.841 152.51C155.841 152.119 155.689 151.843 155.387 151.682C155.084 151.516 154.63 151.433 154.024 151.433H152.04V153.726H154.068C155.25 153.726 155.841 153.32 155.841 152.51ZM155.628 149.119C155.628 148.796 155.501 148.564 155.248 148.423C154.999 148.276 154.625 148.203 154.127 148.203H152.04V150.151H153.871C154.447 150.151 154.884 150.078 155.182 149.932C155.479 149.78 155.628 149.509 155.628 149.119ZM164.454 155L164.11 153.872H164.051C163.661 154.365 163.268 154.702 162.872 154.883C162.477 155.059 161.969 155.146 161.349 155.146C160.553 155.146 159.93 154.932 159.481 154.502C159.037 154.072 158.814 153.464 158.814 152.678C158.814 151.843 159.125 151.213 159.745 150.789C160.365 150.364 161.31 150.132 162.579 150.093L163.978 150.049V149.617C163.978 149.099 163.856 148.713 163.612 148.459C163.373 148.201 162.999 148.071 162.491 148.071C162.076 148.071 161.678 148.132 161.297 148.254C160.917 148.376 160.55 148.521 160.199 148.687L159.642 147.456C160.082 147.227 160.562 147.053 161.085 146.936C161.607 146.814 162.101 146.753 162.564 146.753C163.595 146.753 164.371 146.978 164.894 147.427C165.421 147.876 165.685 148.582 165.685 149.543V155H164.454ZM161.891 153.828C162.516 153.828 163.016 153.655 163.392 153.308C163.773 152.957 163.963 152.466 163.963 151.836V151.133L162.923 151.177C162.113 151.206 161.522 151.343 161.151 151.587C160.785 151.826 160.602 152.195 160.602 152.693C160.602 153.054 160.709 153.335 160.924 153.535C161.139 153.73 161.461 153.828 161.891 153.828ZM174.173 146.899V148.247H171.537V155H169.808V148.247H167.171V146.899H174.173ZM179.271 155.146C178.011 155.146 177.025 154.78 176.312 154.048C175.604 153.311 175.25 152.297 175.25 151.008C175.25 149.685 175.58 148.645 176.239 147.888C176.898 147.131 177.804 146.753 178.956 146.753C180.025 146.753 180.87 147.078 181.49 147.727C182.11 148.376 182.42 149.27 182.42 150.408V151.338H177.022C177.047 152.124 177.259 152.729 177.66 153.154C178.06 153.574 178.624 153.784 179.352 153.784C179.83 153.784 180.274 153.74 180.685 153.652C181.1 153.56 181.544 153.408 182.018 153.198V154.597C181.598 154.797 181.173 154.939 180.743 155.022C180.313 155.105 179.823 155.146 179.271 155.146ZM178.956 148.057C178.409 148.057 177.97 148.23 177.638 148.577C177.311 148.923 177.115 149.429 177.052 150.093H180.729C180.719 149.424 180.558 148.918 180.245 148.577C179.933 148.23 179.503 148.057 178.956 148.057ZM191.034 155H189.298V148.247H187.064C186.927 149.985 186.742 151.343 186.507 152.319C186.278 153.296 185.975 154.009 185.599 154.458C185.228 154.907 184.745 155.132 184.149 155.132C183.773 155.132 183.458 155.078 183.204 154.971V153.623C183.385 153.691 183.565 153.726 183.746 153.726C184.244 153.726 184.635 153.167 184.918 152.048C185.206 150.925 185.431 149.209 185.592 146.899H191.034V155ZM194.33 155H192.403L194.659 151.682C194.112 151.526 193.683 151.248 193.37 150.847C193.058 150.442 192.901 149.941 192.901 149.346C192.901 148.579 193.175 147.981 193.722 147.551C194.269 147.117 195.016 146.899 195.963 146.899H199.654V155H197.926V151.88H196.292L194.33 155ZM194.579 149.36C194.579 149.775 194.735 150.088 195.047 150.298C195.365 150.503 195.79 150.605 196.322 150.605H197.926V148.203H196.051C195.582 148.203 195.218 148.303 194.959 148.503C194.706 148.704 194.579 148.989 194.579 149.36Z" fill="black"/>
<path d="M68.646 233H66.8882V223.793H62.1641V233H60.4136V222.292H68.646V233ZM76.3584 233L76.0142 231.872H75.9556C75.5649 232.365 75.1719 232.702 74.7764 232.883C74.3809 233.059 73.873 233.146 73.2529 233.146C72.457 233.146 71.8345 232.932 71.3853 232.502C70.9409 232.072 70.7188 231.464 70.7188 230.678C70.7188 229.843 71.0288 229.213 71.6489 228.789C72.269 228.364 73.2139 228.132 74.4834 228.093L75.8823 228.049V227.617C75.8823 227.099 75.7603 226.713 75.5161 226.459C75.2769 226.201 74.9033 226.071 74.3955 226.071C73.9805 226.071 73.5825 226.132 73.2017 226.254C72.8208 226.376 72.4546 226.521 72.103 226.687L71.5464 225.456C71.9858 225.227 72.4668 225.053 72.9893 224.936C73.5117 224.814 74.0049 224.753 74.4688 224.753C75.499 224.753 76.2754 224.978 76.7979 225.427C77.3252 225.876 77.5889 226.582 77.5889 227.543V233H76.3584ZM73.7949 231.828C74.4199 231.828 74.9204 231.655 75.2964 231.308C75.6772 230.957 75.8677 230.466 75.8677 229.836V229.133L74.8276 229.177C74.0171 229.206 73.4263 229.343 73.0552 229.587C72.689 229.826 72.5059 230.195 72.5059 230.693C72.5059 231.054 72.6133 231.335 72.8281 231.535C73.043 231.73 73.3652 231.828 73.7949 231.828ZM84.1001 233.146C83.0747 233.146 82.2788 232.778 81.7124 232.041H81.6099C81.6782 232.724 81.7124 233.139 81.7124 233.286V236.604H79.9912V224.899H81.3828C81.4219 225.051 81.5024 225.412 81.6245 225.983H81.7124C82.2495 225.163 83.0552 224.753 84.1294 224.753C85.1401 224.753 85.9263 225.119 86.4878 225.852C87.0542 226.584 87.3374 227.612 87.3374 228.935C87.3374 230.258 87.0493 231.291 86.4731 232.033C85.9019 232.775 85.1108 233.146 84.1001 233.146ZM83.6826 226.159C82.999 226.159 82.4985 226.359 82.1812 226.76C81.8687 227.16 81.7124 227.8 81.7124 228.679V228.935C81.7124 229.921 81.8687 230.637 82.1812 231.081C82.4937 231.521 83.0039 231.74 83.7119 231.74C84.3076 231.74 84.7666 231.496 85.0889 231.008C85.4111 230.52 85.5723 229.824 85.5723 228.92C85.5723 228.012 85.4111 227.326 85.0889 226.862C84.7715 226.394 84.3027 226.159 83.6826 226.159ZM96.522 228.935C96.522 230.258 96.1826 231.291 95.5039 232.033C94.8252 232.775 93.8804 233.146 92.6694 233.146C91.9126 233.146 91.2437 232.976 90.6626 232.634C90.0815 232.292 89.6348 231.801 89.3223 231.162C89.0098 230.522 88.8535 229.78 88.8535 228.935C88.8535 227.622 89.1904 226.596 89.8643 225.859C90.5381 225.122 91.4878 224.753 92.7134 224.753C93.8853 224.753 94.813 225.131 95.4966 225.888C96.1802 226.64 96.522 227.656 96.522 228.935ZM90.626 228.935C90.626 230.805 91.3169 231.74 92.6987 231.74C94.0659 231.74 94.7495 230.805 94.7495 228.935C94.7495 227.084 94.061 226.159 92.6841 226.159C91.9614 226.159 91.4365 226.398 91.1094 226.877C90.7871 227.355 90.626 228.042 90.626 228.935ZM105.165 233H103.429V226.247H101.195C101.058 227.985 100.873 229.343 100.638 230.319C100.409 231.296 100.106 232.009 99.73 232.458C99.3589 232.907 98.8755 233.132 98.2798 233.132C97.9038 233.132 97.5889 233.078 97.335 232.971V231.623C97.5156 231.691 97.6963 231.726 97.877 231.726C98.375 231.726 98.7656 231.167 99.0488 230.048C99.3369 228.925 99.5615 227.209 99.7227 224.899H105.165V233ZM109.354 228.137H111.383C113.644 228.137 114.774 228.918 114.774 230.48C114.774 231.306 114.486 231.933 113.91 232.363C113.333 232.788 112.491 233 111.383 233H107.633V224.899H109.354V228.137ZM113.045 230.524C113.045 230.119 112.892 229.836 112.584 229.675C112.276 229.514 111.842 229.433 111.28 229.433H109.354V231.726H111.31C111.876 231.726 112.306 231.623 112.599 231.418C112.896 231.213 113.045 230.915 113.045 230.524Z" fill="black"/>
<rect x="59.5" y="159.5" width="265" height="38" rx="6.5" fill="#C4C4C4" fill-opacity="0.25" stroke="#71D7DD"/>
<rect x="59.5" y="237.5" width="265" height="38" rx="6.5" fill="#C4C4C4" fill-opacity="0.25" stroke="#71D7DD"/>
<circle cx="191.5" cy="61.5" r="31.5" fill="#71D7DD" fill-opacity="0.7" stroke="black" stroke-width="2"/>
<path d="M202.612 67.6C202.612 69.532 202.15 71.128 201.226 72.388C200.302 73.62 199.014 74.53 197.362 75.118C195.71 75.706 193.792 76 191.608 76H181.192V46.6H191.02C192.952 46.6 194.66 46.88 196.144 47.44C197.628 47.972 198.79 48.784 199.63 49.876C200.498 50.968 200.932 52.354 200.932 54.034C200.932 55.49 200.54 56.736 199.756 57.772C198.972 58.78 197.908 59.564 196.564 60.124C198.3 60.656 199.742 61.538 200.89 62.77C202.038 63.974 202.612 65.584 202.612 67.6ZM190.474 51.388H187.24V58.36H190.474C191.79 58.36 192.826 58.052 193.582 57.436C194.338 56.792 194.716 55.924 194.716 54.832C194.716 53.74 194.338 52.9 193.582 52.312C192.826 51.696 191.79 51.388 190.474 51.388ZM187.24 71.212H191.104C192.616 71.212 193.876 70.862 194.884 70.162C195.892 69.462 196.396 68.356 196.396 66.844C196.396 65.416 195.892 64.38 194.884 63.736C193.876 63.064 192.616 62.728 191.104 62.728H187.24V71.212Z" fill="black"/>
</svg>
