<svg width="383" height="383" viewBox="0 0 383 383" fill="none" xmlns="http://www.w3.org/2000/svg">
<rect x="1.5" y="1.5" width="380" height="380" rx="8.5" stroke="black" stroke-width="3"/>
<rect x="112" y="315" width="160" height="39" rx="19.5" fill="#50CED6" fill-opacity="0.75"/>
<rect x="112.5" y="315.5" width="159" height="38" rx="19" stroke="black" stroke-opacity="0.45"/>
<circle cx="191.5" cy="61.5" r="31.5" fill="#71D7DD" fill-opacity="0.7" stroke="black" stroke-width="2"/>
<path d="M202.612 67.6C202.612 69.532 202.15 71.128 201.226 72.388C200.302 73.62 199.014 74.53 197.362 75.118C195.71 75.706 193.792 76 191.608 76H181.192V46.6H191.02C192.952 46.6 194.66 46.88 196.144 47.44C197.628 47.972 198.79 48.784 199.63 49.876C200.498 50.968 200.932 52.354 200.932 54.034C200.932 55.49 200.54 56.736 199.756 57.772C198.972 58.78 197.908 59.564 196.564 60.124C198.3 60.656 199.742 61.538 200.89 62.77C202.038 63.974 202.612 65.584 202.612 67.6ZM190.474 51.388H187.24V58.36H190.474C191.79 58.36 192.826 58.052 193.582 57.436C194.338 56.792 194.716 55.924 194.716 54.832C194.716 53.74 194.338 52.9 193.582 52.312C192.826 51.696 191.79 51.388 190.474 51.388ZM187.24 71.212H191.104C192.616 71.212 193.876 70.862 194.884 70.162C195.892 69.462 196.396 68.356 196.396 66.844C196.396 65.416 195.892 64.38 194.884 63.736C193.876 63.064 192.616 62.728 191.104 62.728H187.24V71.212Z" fill="black"/>
</svg>
